<svg width="20" height="20" viewBox="0 0 20 20" fill="none" xmlns="http://www.w3.org/2000/svg">
<path d="M4.6875 9.99999C4.6875 9.00909 4.96051 8.08085 5.4348 7.28605V3.91464H2.0634C0.725313 5.65245 0 7.77038 0 9.99999C0 12.2296 0.725313 14.3475 2.0634 16.0853H5.4348V12.7139C4.96051 11.9191 4.6875 10.9909 4.6875 9.99999V9.99999Z" fill="#FBBD00"/>
<path d="M10 15.3125L7.65625 17.6562L10 20C12.2296 20 14.3475 19.2747 16.0854 17.9366V14.5688H12.7175C11.9158 15.0448 10.9836 15.3125 10 15.3125V15.3125Z" fill="#0F9D58"/>
<path d="M5.43482 12.714L2.06342 16.0854C2.32834 16.4294 2.61681 16.7589 2.92896 17.0711C4.81771 18.9598 7.32892 20 10 20V15.3125C8.06158 15.3125 6.36263 14.2688 5.43482 12.714Z" fill="#31AA52"/>
<path d="M20 10C20 9.39161 19.9449 8.78208 19.8363 8.18841L19.7483 7.70798H10V12.3955H14.7442C14.2835 13.3119 13.5752 14.0596 12.7175 14.5688L16.0853 17.9366C16.4294 17.6717 16.7589 17.3832 17.0711 17.0711C18.9598 15.1823 20 12.6711 20 10V10Z" fill="#3C79E6"/>
<path d="M13.7565 6.24348L14.1708 6.65777L17.4854 3.34324L17.0711 2.92895C15.1823 1.0402 12.6711 0 10 0L7.65625 2.34375L10 4.6875C11.419 4.6875 12.7531 5.24008 13.7565 6.24348Z" fill="#CF2D48"/>
<path d="M10 4.6875V0C7.3289 0 4.81769 1.0402 2.9289 2.92891C2.61675 3.24105 2.32828 3.57055 2.06335 3.91465L5.43476 7.28605C6.36261 5.73125 8.06156 4.6875 10 4.6875V4.6875Z" fill="#EB4132"/>
</svg>
